<?xml version="1.0" encoding="UTF-8" standalone="no"?>
<!-- Created with Inkscape (http://www.inkscape.org/) -->

<svg
   xmlns:dc="http://purl.org/dc/elements/1.1/"
   xmlns:cc="http://creativecommons.org/ns#"
   xmlns:rdf="http://www.w3.org/1999/02/22-rdf-syntax-ns#"
   xmlns:svg="http://www.w3.org/2000/svg"
   xmlns="http://www.w3.org/2000/svg"
   xmlns:sodipodi="http://sodipodi.sourceforge.net/DTD/sodipodi-0.dtd"
   xmlns:inkscape="http://www.inkscape.org/namespaces/inkscape"
   version="1.1"
   id="svg2"
   xml:space="preserve"
   width="340"
   height="400"
   viewBox="0 0 340 399.99999"
   sodipodi:docname="panoply.svg"
   inkscape:version="0.92.4 5da689c313, 2019-01-14"><metadata
     id="metadata8"><rdf:RDF><cc:Work
         rdf:about=""><dc:format>image/svg+xml</dc:format><dc:type
           rdf:resource="http://purl.org/dc/dcmitype/StillImage" /><dc:title></dc:title></cc:Work></rdf:RDF></metadata><defs
     id="defs6"><clipPath
       clipPathUnits="userSpaceOnUse"
       id="clipPath18"><path
         d="M 0,841.89 H 595.28 V 0 H 0 Z"
         id="path16"
         inkscape:connector-curvature="0" /></clipPath><clipPath
       clipPathUnits="userSpaceOnUse"
       id="clipPath348"><path
         d="M 0,841.89 H 595.28 V 0 H 0 Z"
         id="path346"
         inkscape:connector-curvature="0" /></clipPath><clipPath
       clipPathUnits="userSpaceOnUse"
       id="clipPath366"><path
         d="M 0,841.89 H 595.28 V 0 H 0 Z"
         id="path364"
         inkscape:connector-curvature="0" /></clipPath></defs><sodipodi:namedview
     pagecolor="#ffffff"
     bordercolor="#666666"
     borderopacity="1"
     objecttolerance="10"
     gridtolerance="10"
     guidetolerance="10"
     inkscape:pageopacity="0"
     inkscape:pageshadow="2"
     inkscape:window-width="1920"
     inkscape:window-height="1027"
     id="namedview4"
     showgrid="false"
     inkscape:zoom="0.84096496"
     inkscape:cx="201.41638"
     inkscape:cy="269.4635"
     inkscape:window-x="1920"
     inkscape:window-y="0"
     inkscape:window-maximized="1"
     inkscape:current-layer="g10" /><g
     id="g10"
     inkscape:groupmode="layer"
     inkscape:label="Panoply"
     transform="matrix(1.3333333,0,0,-1.3333333,0,399.99998)"><g
   id="g1336"
   transform="translate(-22.295817,-518.15477)"><g
     transform="translate(125.48218,765.08339)"
     id="g20"><path
       inkscape:connector-curvature="0"
       id="path22"
       style="fill:#646363;fill-opacity:1;fill-rule:nonzero;stroke:none"
       d="M 0,0 C 0,0 6.634,-1.156 8.447,-1.08 10.259,-1.002 16.7,0 16.7,0 L 18.358,12.227 8.177,16.816 -2.392,13.191 Z" /></g><g
     transform="translate(125.48218,765.08339)"
     id="g24"><path
       inkscape:connector-curvature="0"
       id="path26"
       style="fill:none;stroke:#1d1d1b;stroke-width:1;stroke-linecap:butt;stroke-linejoin:miter;stroke-miterlimit:10;stroke-dasharray:none;stroke-opacity:1"
       d="M 0,0 C 0,0 6.634,-1.156 8.447,-1.08 10.259,-1.002 16.7,0 16.7,0 L 18.358,12.227 8.177,16.816 -2.392,13.191 Z" /></g><g
     transform="translate(129.87918,772.45059)"
     id="g28"><path
       inkscape:connector-curvature="0"
       id="path30"
       style="fill:#1d1d1b;fill-opacity:1;fill-rule:nonzero;stroke:none"
       d="m 0,0 v -13.691 c 0,0 -8.37,4.666 -9.334,6.132 -0.964,1.465 -0.655,0.887 -0.655,0.887 0,0 0.655,11.024 0.192,14.035 -0.462,3.012 1.157,9.645 4.05,11.073 2.893,1.427 8.64,3.355 12.574,1.929 3.933,-1.428 8.562,-3.588 9.41,-8.332 0.848,-4.744 -0.077,-11.84 0,-13.652 0.077,-1.813 0.361,-5.748 0.361,-5.748 0,0 -6.686,-6.672 -6.802,-6.748 C 9.681,-14.193 8.678,0.154 8.678,0.154 l 4.512,3.625 c 0,0 -1.08,2.006 -2.7,2.354 C 8.871,6.48 6.209,5.592 5.939,4.012 5.669,2.43 5.477,0.193 5.669,-1.119 5.862,-2.43 6.363,-3.471 5.785,-4.203 5.207,-4.937 4.859,-5.168 4.242,-4.898 3.625,-4.629 2.97,-3.973 3.008,-1.389 3.047,1.195 2.275,4.205 1.118,4.937 -0.039,5.67 -2.816,6.518 -4.011,5.207 -5.207,3.895 -5.4,3.857 -5.4,3.857 Z" /></g><g
     transform="translate(129.87918,772.45059)"
     id="g32"><path
       inkscape:connector-curvature="0"
       id="path34"
       style="fill:none;stroke:#1d1d1b;stroke-width:1;stroke-linecap:butt;stroke-linejoin:miter;stroke-miterlimit:10;stroke-dasharray:none;stroke-opacity:1"
       d="m 0,0 v -13.691 c 0,0 -8.37,4.666 -9.334,6.132 -0.964,1.465 -0.655,0.887 -0.655,0.887 0,0 0.655,11.024 0.192,14.035 -0.462,3.012 1.157,9.645 4.05,11.073 2.893,1.427 8.64,3.355 12.574,1.929 3.933,-1.428 8.562,-3.588 9.41,-8.332 0.848,-4.744 -0.077,-11.84 0,-13.652 0.077,-1.813 0.361,-5.748 0.361,-5.748 0,0 -6.686,-6.672 -6.802,-6.748 C 9.681,-14.193 8.678,0.154 8.678,0.154 l 4.512,3.625 c 0,0 -1.08,2.006 -2.7,2.354 C 8.871,6.48 6.209,5.592 5.939,4.012 5.669,2.43 5.477,0.193 5.669,-1.119 5.862,-2.43 6.363,-3.471 5.785,-4.203 5.207,-4.937 4.859,-5.168 4.242,-4.898 3.625,-4.629 2.97,-3.973 3.008,-1.389 3.047,1.195 2.275,4.205 1.118,4.937 -0.039,5.67 -2.816,6.518 -4.011,5.207 -5.207,3.895 -5.4,3.857 -5.4,3.857 Z" /></g></g><g
   id="g1394"
   transform="translate(-28.602026,-296.17621)"><g
     transform="translate(156.8398,442.708)"
     id="g36"><path
       inkscape:connector-curvature="0"
       id="path38"
       style="fill:#1d1d1b;fill-opacity:1;fill-rule:nonzero;stroke:none"
       d="m 0,0 c 0,0 1.533,-0.109 2.299,-1.533 0.767,-1.424 1.314,-3.067 1.424,-4.054 0.111,-0.985 0,-2.19 0,-2.956 0,-0.768 -0.438,-3.725 -0.328,-4.383 0.109,-0.656 0.218,-5.258 0.218,-7.447 0,-2.191 -0.437,-8.215 -0.656,-11.063 -0.221,-2.849 -0.439,-6.244 -0.547,-8.326 -0.111,-2.08 -0.549,-4.49 -0.33,-5.586 0.219,-1.093 0.547,-2.41 0.547,-2.41 0,0 -0.328,-1.203 -0.766,-1.203 -0.437,0 -1.314,-0.986 -2.629,-0.549 -1.314,0.438 -2.959,1.424 -3.722,2.192 -0.768,0.765 -0.987,5.039 -1.317,7.009 -0.328,1.973 -1.314,5.698 -1.861,7.23 -0.549,1.532 -1.205,5.915 -1.314,8.763 -0.11,2.847 0,3.724 0,3.724 0,0 1.423,4.053 1.644,5.366 0.217,1.314 0.656,9.859 1.094,10.515 0.437,0.658 1.314,3.178 2.517,3.835 C -2.52,-0.219 0,0 0,0" /></g><g
     transform="translate(156.8398,442.708)"
     id="g40"><path
       inkscape:connector-curvature="0"
       id="path42"
       style="fill:none;stroke:#ffffff;stroke-width:0.5;stroke-linecap:butt;stroke-linejoin:miter;stroke-miterlimit:4;stroke-dasharray:none;stroke-opacity:1"
       d="m 0,0 c 0,0 1.533,-0.109 2.299,-1.533 0.767,-1.424 1.314,-3.067 1.424,-4.054 0.111,-0.985 0,-2.19 0,-2.956 0,-0.768 -0.438,-3.725 -0.328,-4.383 0.109,-0.656 0.218,-5.258 0.218,-7.447 0,-2.191 -0.437,-8.215 -0.656,-11.063 -0.221,-2.849 -0.439,-6.244 -0.547,-8.326 -0.111,-2.08 -0.549,-4.49 -0.33,-5.586 0.219,-1.093 0.547,-2.41 0.547,-2.41 0,0 -0.328,-1.203 -0.766,-1.203 -0.437,0 -1.314,-0.986 -2.629,-0.549 -1.314,0.438 -2.959,1.424 -3.722,2.192 -0.768,0.765 -0.987,5.039 -1.317,7.009 -0.328,1.973 -1.314,5.698 -1.861,7.23 -0.549,1.532 -1.205,5.915 -1.314,8.763 -0.11,2.847 0,3.724 0,3.724 0,0 1.423,4.053 1.644,5.366 0.217,1.314 0.656,9.859 1.094,10.515 0.437,0.658 1.314,3.178 2.517,3.835 C -2.52,-0.219 0,0 0,0 Z" /></g><g
     transform="translate(153.4434,422.1162)"
     id="g44"><path
       inkscape:connector-curvature="0"
       id="path46"
       style="fill:none;stroke:#ffffff;stroke-width:0.5;stroke-linecap:butt;stroke-linejoin:miter;stroke-miterlimit:4;stroke-dasharray:none;stroke-opacity:1"
       d="m 0,0 c 0,0 0.986,-6.793 0.437,-8.873 -0.546,-2.082 -1.312,-4.382 -1.312,-4.382" /></g><g
     transform="translate(159.1035,430.874)"
     id="g48"><path
       inkscape:connector-curvature="0"
       id="path50"
       style="fill:none;stroke:#ffffff;stroke-width:0.5;stroke-linecap:butt;stroke-linejoin:miter;stroke-miterlimit:4;stroke-dasharray:none;stroke-opacity:1"
       d="M 0,0 -0.182,-5.256" /></g><g
     transform="translate(158.7773,422.9912)"
     id="g52"><path
       inkscape:connector-curvature="0"
       id="path54"
       style="fill:none;stroke:#ffffff;stroke-width:0.5;stroke-linecap:butt;stroke-linejoin:miter;stroke-miterlimit:4;stroke-dasharray:none;stroke-opacity:1"
       d="M 0,0 C 0,0 0.127,-14.789 -0.48,-19.164" /></g><g
     transform="translate(124.1035,442.708)"
     id="g56"><path
       inkscape:connector-curvature="0"
       id="path58"
       style="fill:#1d1d1b;fill-opacity:1;fill-rule:nonzero;stroke:none"
       d="m 0,0 c 0,0 -1.533,-0.109 -2.299,-1.533 -0.767,-1.424 -1.314,-3.067 -1.424,-4.054 -0.111,-0.985 0,-2.19 0,-2.956 0,-0.768 0.438,-3.725 0.328,-4.383 -0.109,-0.656 -0.218,-5.258 -0.218,-7.447 0,-2.191 0.437,-8.215 0.656,-11.063 0.221,-2.849 0.437,-6.244 0.547,-8.326 0.111,-2.08 0.549,-4.49 0.33,-5.586 -0.219,-1.093 -0.547,-2.41 -0.547,-2.41 0,0 0.328,-1.203 0.766,-1.203 0.437,0 1.312,-0.986 2.629,-0.549 1.312,0.438 2.957,1.424 3.722,2.192 0.768,0.765 0.987,5.039 1.317,7.009 0.328,1.973 1.312,5.698 1.861,7.23 0.547,1.532 1.205,5.915 1.314,8.763 0.11,2.847 0,3.724 0,3.724 0,0 -1.425,4.053 -1.644,5.366 C 7.119,-13.912 6.682,-5.367 6.244,-4.711 5.807,-4.053 4.93,-1.533 3.725,-0.876 2.52,-0.219 0,0 0,0" /></g><g
     transform="translate(124.1035,442.708)"
     id="g60"><path
       inkscape:connector-curvature="0"
       id="path62"
       style="fill:none;stroke:#ffffff;stroke-width:0.5;stroke-linecap:butt;stroke-linejoin:miter;stroke-miterlimit:4;stroke-dasharray:none;stroke-opacity:1"
       d="m 0,0 c 0,0 -1.533,-0.109 -2.299,-1.533 -0.767,-1.424 -1.314,-3.067 -1.424,-4.054 -0.111,-0.985 0,-2.19 0,-2.956 0,-0.768 0.438,-3.725 0.328,-4.383 -0.109,-0.656 -0.218,-5.258 -0.218,-7.447 0,-2.191 0.437,-8.215 0.656,-11.063 0.221,-2.849 0.437,-6.244 0.547,-8.326 0.111,-2.08 0.549,-4.49 0.33,-5.586 -0.219,-1.093 -0.547,-2.41 -0.547,-2.41 0,0 0.328,-1.203 0.766,-1.203 0.437,0 1.312,-0.986 2.629,-0.549 1.312,0.438 2.957,1.424 3.722,2.192 0.768,0.765 0.987,5.039 1.317,7.009 0.328,1.973 1.312,5.698 1.861,7.23 0.547,1.532 1.205,5.915 1.314,8.763 0.11,2.847 0,3.724 0,3.724 0,0 -1.425,4.053 -1.644,5.366 C 7.119,-13.912 6.682,-5.367 6.244,-4.711 5.807,-4.053 4.93,-1.533 3.725,-0.876 2.52,-0.219 0,0 0,0 Z" /></g><g
     transform="translate(127.5,422.1162)"
     id="g64"><path
       inkscape:connector-curvature="0"
       id="path66"
       style="fill:none;stroke:#ffffff;stroke-width:0.5;stroke-linecap:butt;stroke-linejoin:miter;stroke-miterlimit:4;stroke-dasharray:none;stroke-opacity:1"
       d="m 0,0 c 0,0 -0.986,-6.793 -0.439,-8.873 0.548,-2.082 1.314,-4.382 1.314,-4.382" /></g><g
     transform="translate(121.8379,430.874)"
     id="g68"><path
       inkscape:connector-curvature="0"
       id="path70"
       style="fill:none;stroke:#ffffff;stroke-width:0.5;stroke-linecap:butt;stroke-linejoin:miter;stroke-miterlimit:4;stroke-dasharray:none;stroke-opacity:1"
       d="M 0,0 0.184,-5.256" /></g><g
     transform="translate(122.1641,422.9912)"
     id="g72"><path
       inkscape:connector-curvature="0"
       id="path74"
       style="fill:none;stroke:#ffffff;stroke-width:0.5;stroke-linecap:butt;stroke-linejoin:miter;stroke-miterlimit:4;stroke-dasharray:none;stroke-opacity:1"
       d="M 0,0 C 0,0 -0.125,-14.789 0.482,-19.164" /></g></g><g
   id="g1346"
   transform="translate(62.423785,-492.49715)"><g
     transform="translate(176.457,684.9873)"
     id="g76"><path
       inkscape:connector-curvature="0"
       id="path78"
       style="fill:#1d1d1b;fill-opacity:1;fill-rule:nonzero;stroke:none"
       d="m 0,0 c 0,-22.727 -18.422,-41.149 -41.148,-41.149 -22.727,0 -41.151,18.422 -41.151,41.149 0,22.727 18.424,41.149 41.151,41.149 C -18.422,41.149 0,22.727 0,0" /></g><g
     transform="translate(176.457,684.9873)"
     id="g80"><path
       inkscape:connector-curvature="0"
       id="path82"
       style="fill:none;stroke:#1d1d1b;stroke-width:1;stroke-linecap:butt;stroke-linejoin:miter;stroke-miterlimit:4;stroke-dasharray:none;stroke-opacity:1"
       d="m 0,0 c 0,-22.727 -18.422,-41.149 -41.148,-41.149 -22.727,0 -41.151,18.422 -41.151,41.149 0,22.727 18.424,41.149 41.151,41.149 C -18.422,41.149 0,22.727 0,0 Z" /></g><g
     transform="translate(173.9434,684.9873)"
     id="g84"><path
       inkscape:connector-curvature="0"
       id="path86"
       style="fill:#1d1d1b;fill-opacity:1;fill-rule:nonzero;stroke:none"
       d="m 0,0 c 0,-21.337 -17.297,-38.634 -38.635,-38.634 -21.338,0 -38.635,17.297 -38.635,38.634 0,21.338 17.297,38.635 38.635,38.635 C -17.297,38.635 0,21.338 0,0" /></g><g
     transform="translate(173.9434,684.9873)"
     id="g88"><path
       inkscape:connector-curvature="0"
       id="path90"
       style="fill:none;stroke:#ffffff;stroke-width:0.5;stroke-linecap:butt;stroke-linejoin:miter;stroke-miterlimit:4;stroke-dasharray:none;stroke-opacity:1"
       d="m 0,0 c 0,-21.337 -17.297,-38.634 -38.635,-38.634 -21.338,0 -38.635,17.297 -38.635,38.634 0,21.338 17.297,38.635 38.635,38.635 C -17.297,38.635 0,21.338 0,0 Z" /></g></g><g
   id="g1468"
   transform="translate(-338.6109,-482.77006)"><g
     transform="translate(371.2119,582.2881)"
     id="g92"><path
       inkscape:connector-curvature="0"
       id="path94"
       style="fill:#1d1d1b;fill-opacity:1;fill-rule:nonzero;stroke:none"
       d="M 0,0 H 3.193 L 2.857,12.029 h 0.097 l -0.048,0.194 c 0,0 0.397,0.298 0.361,0.443 -0.038,0.145 -0.336,0.504 -0.336,0.504 v 0.24 h -0.11 l 0.133,0.793 c 0,0 -0.681,22.248 -0.825,22.568 C 1.985,37.092 1.568,37.268 1.521,36.932 1.473,36.596 0.337,14.279 0.337,14.279 L 0.544,13.463 H 0.352 L 0.32,13.254 c 0,0 -0.257,-0.207 -0.32,-0.4 -0.063,-0.192 0.24,-0.352 0.288,-0.416 0.049,-0.065 0,-0.336 0,-0.336 H 0.48 L 0.216,3.744 0.145,3.576 Z" /></g><g
     transform="translate(371.2119,582.2881)"
     id="g96"><path
       inkscape:connector-curvature="0"
       id="path98"
       style="fill:none;stroke:#1d1d1b;stroke-width:0.5;stroke-linecap:butt;stroke-linejoin:miter;stroke-miterlimit:10;stroke-dasharray:none;stroke-opacity:1"
       d="M 0,0 H 3.193 L 2.857,12.029 h 0.097 l -0.048,0.194 c 0,0 0.397,0.298 0.361,0.443 -0.038,0.145 -0.336,0.504 -0.336,0.504 v 0.24 h -0.11 l 0.133,0.793 c 0,0 -0.681,22.248 -0.825,22.568 C 1.985,37.092 1.568,37.268 1.521,36.932 1.473,36.596 0.337,14.279 0.337,14.279 L 0.544,13.463 H 0.352 L 0.32,13.254 c 0,0 -0.257,-0.207 -0.32,-0.4 -0.063,-0.192 0.24,-0.352 0.288,-0.416 0.049,-0.065 0,-0.336 0,-0.336 H 0.48 L 0.216,3.744 0.145,3.576 Z" /></g><g
     transform="translate(370.54,603.708)"
     id="g100"><path
       inkscape:connector-curvature="0"
       id="path102"
       style="fill:none;stroke:#1d1d1b;stroke-width:0.25;stroke-linecap:butt;stroke-linejoin:miter;stroke-miterlimit:10;stroke-dasharray:none;stroke-opacity:1"
       d="M 0,0 H 0.662" /></g><g
     transform="translate(374.4795,603.708)"
     id="g104"><path
       inkscape:connector-curvature="0"
       id="path106"
       style="fill:none;stroke:#1d1d1b;stroke-width:0.25;stroke-linecap:butt;stroke-linejoin:miter;stroke-miterlimit:10;stroke-dasharray:none;stroke-opacity:1"
       d="M 0,0 H 0.727" /></g><g
     transform="translate(372.7334,619.2197)"
     id="g108"><path
       inkscape:connector-curvature="0"
       id="path110"
       style="fill:#1d1d1b;fill-opacity:1;fill-rule:nonzero;stroke:#1d1d1b;stroke-width:0.5;stroke-linecap:butt;stroke-linejoin:miter;stroke-miterlimit:10;stroke-dasharray:none;stroke-opacity:1"
       d="m 0,0 -3.853,-23.631 2.683,0.162" /></g><g
     transform="translate(373.3408,619.0596)"
     id="g112"><path
       inkscape:connector-curvature="0"
       id="path114"
       style="fill:#1d1d1b;fill-opacity:1;fill-rule:nonzero;stroke:#1d1d1b;stroke-width:0.5;stroke-linecap:butt;stroke-linejoin:miter;stroke-miterlimit:10;stroke-dasharray:none;stroke-opacity:1"
       d="M 0,0 3.008,-23.471 0.802,-23.602" /></g><g
     transform="translate(371.2031,596.79)"
     id="g116"><path
       inkscape:connector-curvature="0"
       id="path118"
       style="fill:#1d1d1b;fill-opacity:1;fill-rule:nonzero;stroke:#ffffff;stroke-width:0.25;stroke-linecap:butt;stroke-linejoin:miter;stroke-miterlimit:10;stroke-dasharray:none;stroke-opacity:1"
       d="M 0,0 1.639,19.832 3.64,0" /></g></g><g
   id="g1372"
   transform="translate(-101.12344,-397.07556)"><g
     transform="translate(155.2754,586.7324)"
     id="g120"><path
       inkscape:connector-curvature="0"
       id="path122"
       style="fill:#646363;fill-opacity:1;fill-rule:nonzero;stroke:none"
       d="m 0,0 c 0,0 0.041,-2.064 0.492,-3.136 0.451,-1.071 1.014,-2.029 1.578,-2.086 0.564,-0.055 0.225,-0.641 1.072,1.399 0.844,2.041 2.536,4.295 2.817,4.634 0.283,0.337 0.395,0.958 0.395,0.958 L 3.177,3.628 Z" /></g><g
     transform="translate(155.2754,586.7324)"
     id="g124"><path
       inkscape:connector-curvature="0"
       id="path126"
       style="fill:none;stroke:#1d1d1b;stroke-width:1;stroke-linecap:butt;stroke-linejoin:miter;stroke-miterlimit:10;stroke-dasharray:none;stroke-opacity:1"
       d="m 0,0 c 0,0 0.041,-2.064 0.492,-3.136 0.451,-1.071 1.014,-2.029 1.578,-2.086 0.564,-0.055 0.225,-0.641 1.072,1.399 0.844,2.041 2.536,4.295 2.817,4.634 0.283,0.337 0.395,0.958 0.395,0.958 L 3.177,3.628 Z" /></g><g
     transform="translate(162.5879,609.4687)"
     id="g128"><path
       inkscape:connector-curvature="0"
       id="path130"
       style="fill:#1d1d1b;fill-opacity:1;fill-rule:nonzero;stroke:none"
       d="m 0,0 c 0,0 1.409,2.59 0.507,4.791 -0.902,2.2 -4.566,5.623 -9.413,3.687 -4.848,-1.937 -5.976,-6.616 -5.412,-11.407 0.564,-4.792 1.071,-5.186 0.733,-5.525 -0.338,-0.337 -1.748,-0.056 -2.086,-0.733 -0.338,-0.675 0.958,-10.485 1.409,-13.134 0.451,-2.65 0.846,-7.61 1.635,-7.723 0.789,-0.112 1.522,2.03 1.917,2.932 0.394,0.901 2.142,3.777 3.889,4.678 1.748,0.903 4.397,1.917 5.13,1.692 l 0.733,-0.226 c 0,0 0.62,2.267 1.015,3.332 0.394,1.065 0.884,4.832 0.752,5.907 -0.132,1.078 -1.147,3.53 -1.147,4.614 C -0.338,-6.029 0,0 0,0" /></g><g
     transform="translate(162.5879,609.4687)"
     id="g132"><path
       inkscape:connector-curvature="0"
       id="path134"
       style="fill:none;stroke:#1d1d1b;stroke-width:1;stroke-linecap:butt;stroke-linejoin:miter;stroke-miterlimit:10;stroke-dasharray:none;stroke-opacity:1"
       d="m 0,0 c 0,0 1.409,2.59 0.507,4.791 -0.902,2.2 -4.566,5.623 -9.413,3.687 -4.848,-1.937 -5.976,-6.616 -5.412,-11.407 0.564,-4.792 1.071,-5.186 0.733,-5.525 -0.338,-0.337 -1.748,-0.056 -2.086,-0.733 -0.338,-0.675 0.958,-10.485 1.409,-13.134 0.451,-2.65 0.846,-7.61 1.635,-7.723 0.789,-0.112 1.522,2.03 1.917,2.932 0.394,0.901 2.142,3.777 3.889,4.678 1.748,0.903 4.397,1.917 5.13,1.692 l 0.733,-0.226 c 0,0 0.62,2.267 1.015,3.332 0.394,1.065 0.884,4.832 0.752,5.907 -0.132,1.078 -1.147,3.53 -1.147,4.614 C -0.338,-6.029 0,0 0,0 Z" /></g><g
     transform="translate(149.6787,601.2969)"
     id="g136"><path
       inkscape:connector-curvature="0"
       id="path138"
       style="fill:none;stroke:#ffffff;stroke-width:0.25;stroke-linecap:butt;stroke-linejoin:miter;stroke-miterlimit:10;stroke-dasharray:none;stroke-opacity:1"
       d="m 0,0 c 0,0 2.414,-1.216 3.067,-2.326 0.654,-1.112 3.416,-6.524 4.543,-6.862 1.128,-0.338 3.552,-1.058 4.341,-0.276 0.789,0.783 0.395,0.444 0.395,0.444" /></g><g
     transform="translate(161.6299,600.959)"
     id="g140"><path
       inkscape:connector-curvature="0"
       id="path142"
       style="fill:none;stroke:#ffffff;stroke-width:0.25;stroke-linecap:butt;stroke-linejoin:miter;stroke-miterlimit:10;stroke-dasharray:none;stroke-opacity:1"
       d="m 0,0 c 0,0 -1.901,-0.281 -3.177,-1.297 -1.277,-1.015 -1.953,-2.318 -1.953,-3.272 0,-0.955 0.113,-2.252 0.789,-3.21" /></g><g
     transform="translate(161.5732,608.8232)"
     id="g144"><path
       inkscape:connector-curvature="0"
       id="path146"
       style="fill:none;stroke:#ffffff;stroke-width:0.25;stroke-linecap:butt;stroke-linejoin:miter;stroke-miterlimit:10;stroke-dasharray:none;stroke-opacity:1"
       d="m 0,0 c 0,-3.005 -2.436,-5.439 -5.44,-5.439 -3.004,0 -5.439,2.434 -5.439,5.439 0,3.004 2.435,5.439 5.439,5.439 C -2.436,5.439 0,3.004 0,0 Z" /></g><g
     transform="translate(125.1016,611.208)"
     id="g148"><path
       inkscape:connector-curvature="0"
       id="path150"
       style="fill:#646363;fill-opacity:1;fill-rule:nonzero;stroke:none"
       d="M 0,0 C 0.316,0 2.675,2.279 2.675,2.279 L 6.042,3.082 4.392,-3.952 4.03,-9.425 Z" /></g><g
     transform="translate(125.1016,611.208)"
     id="g152"><path
       inkscape:connector-curvature="0"
       id="path154"
       style="fill:none;stroke:#1d1d1b;stroke-width:0.5;stroke-linecap:butt;stroke-linejoin:miter;stroke-miterlimit:10;stroke-dasharray:none;stroke-opacity:1"
       d="M 0,0 C 0.316,0 2.675,2.279 2.675,2.279 L 6.042,3.082 4.392,-3.952 4.03,-9.425 Z" /></g><g
     transform="translate(125.5679,607.4287)"
     id="g156"><path
       inkscape:connector-curvature="0"
       id="path158"
       style="fill:#1d1d1b;fill-opacity:1;fill-rule:nonzero;stroke:none"
       d="M 0,0 C 0,0 1.601,0.949 2.252,2.49 2.904,4.031 5.638,7.222 7.146,7.346 8.654,7.47 11.556,6.521 11.913,6.047 12.27,5.573 12.418,5.161 12.418,5.161 l 0.224,-1.07 c 0,0 0.171,-10.61 -0.131,-15.056 -0.301,-4.446 0.005,-8.595 0,-10.195 -0.004,-1.601 -0.196,-2.252 -0.196,-2.252 0,0 -0.757,-1.423 -2.061,-1.838 -1.304,-0.415 -3.556,-0.89 -4.327,-0.711 -0.77,0.177 -1.956,1.126 -1.956,1.126 0,0 0.059,0.948 0.356,1.659 0.297,0.712 0.474,6.461 -1.185,12.033 C 1.482,-5.571 0,0 0,0" /></g><g
     transform="translate(125.5679,607.4287)"
     id="g160"><path
       inkscape:connector-curvature="0"
       id="path162"
       style="fill:none;stroke:#1d1d1b;stroke-width:1;stroke-linecap:butt;stroke-linejoin:miter;stroke-miterlimit:10;stroke-dasharray:none;stroke-opacity:1"
       d="M 0,0 C 0,0 1.601,0.949 2.252,2.49 2.904,4.031 5.638,7.222 7.146,7.346 8.654,7.47 11.556,6.521 11.913,6.047 12.27,5.573 12.418,5.161 12.418,5.161 l 0.224,-1.07 c 0,0 0.171,-10.61 -0.131,-15.056 -0.301,-4.446 0.005,-8.595 0,-10.195 -0.004,-1.601 -0.196,-2.252 -0.196,-2.252 0,0 -0.757,-1.423 -2.061,-1.838 -1.304,-0.415 -3.556,-0.89 -4.327,-0.711 -0.77,0.177 -1.956,1.126 -1.956,1.126 0,0 0.059,0.948 0.356,1.659 0.297,0.712 0.474,6.461 -1.185,12.033 C 1.482,-5.571 0,0 0,0 Z" /></g><g
     transform="translate(133.8359,611.6572)"
     id="g164"><path
       inkscape:connector-curvature="0"
       id="path166"
       style="fill:none;stroke:#ffffff;stroke-width:0.25;stroke-linecap:butt;stroke-linejoin:miter;stroke-miterlimit:10;stroke-dasharray:none;stroke-opacity:1"
       d="m 0,0 c 0,0 1.834,-10.669 1.752,-15.095 -0.082,-4.426 0.171,-7.587 0.171,-7.587" /></g></g><g
   id="g1406"
   transform="translate(-29.232647,-287.34751)"><g
     transform="translate(145.3047,369.1104)"
     id="g168"><path
       inkscape:connector-curvature="0"
       id="path170"
       style="fill:#646363;fill-opacity:1;fill-rule:nonzero;stroke:none"
       d="m 0,0 2.167,-13.808 c 0,0 2.567,-0.588 5.086,0.587 2.52,1.176 10.671,6.334 11.329,7.4 0.658,1.065 1.753,2.857 1.114,3.877 -0.638,1.02 -1.962,2.117 -6.78,1.456 C 8.098,-1.148 5.709,-0.747 4.804,-0.123 3.899,0.502 3.306,0.681 2.646,0.981 1.986,1.283 0,0 0,0" /></g><g
     transform="translate(145.3047,369.1104)"
     id="g172"><path
       inkscape:connector-curvature="0"
       id="path174"
       style="fill:none;stroke:#1d1d1b;stroke-width:0.5;stroke-linecap:butt;stroke-linejoin:miter;stroke-miterlimit:10;stroke-dasharray:none;stroke-opacity:1"
       d="m 0,0 2.167,-13.808 c 0,0 2.567,-0.588 5.086,0.587 2.52,1.176 10.671,6.334 11.329,7.4 0.658,1.065 1.753,2.857 1.114,3.877 -0.638,1.02 -1.962,2.117 -6.78,1.456 C 8.098,-1.148 5.709,-0.747 4.804,-0.123 3.899,0.502 3.306,0.681 2.646,0.981 1.986,1.283 0,0 0,0 Z" /></g><g
     transform="translate(145.3481,368.874)"
     id="g176"><path
       inkscape:connector-curvature="0"
       id="path178"
       style="fill:#1d1d1b;fill-opacity:1;fill-rule:nonzero;stroke:none"
       d="m 0,0 0.569,-13.965 c 0,0 2.482,-0.879 5.12,0 2.638,0.88 11.327,5.069 12.103,6.052 0.776,0.982 2.069,2.638 1.551,3.724 -0.516,1.085 -1.706,2.328 -6.568,2.224 C 7.913,-2.068 5.586,-1.396 4.758,-0.672 3.931,0.052 3.362,0.297 2.741,0.673 2.121,1.048 0,0 0,0" /></g><g
     transform="translate(145.3481,368.874)"
     id="g180"><path
       inkscape:connector-curvature="0"
       id="path182"
       style="fill:none;stroke:#1d1d1b;stroke-width:0.5;stroke-linecap:butt;stroke-linejoin:miter;stroke-miterlimit:10;stroke-dasharray:none;stroke-opacity:1"
       d="m 0,0 0.569,-13.965 c 0,0 2.482,-0.879 5.12,0 2.638,0.88 11.327,5.069 12.103,6.052 0.776,0.982 2.069,2.638 1.551,3.724 -0.516,1.085 -1.706,2.328 -6.568,2.224 C 7.913,-2.068 5.586,-1.396 4.758,-0.672 3.931,0.052 3.362,0.297 2.741,0.673 2.121,1.048 0,0 0,0 Z" /></g><g
     transform="translate(145.5723,366.3799)"
     id="g184"><path
       inkscape:connector-curvature="0"
       id="path186"
       style="fill:#1d1d1b;fill-opacity:1;fill-rule:nonzero;stroke:#ffffff;stroke-width:0.25;stroke-linecap:butt;stroke-linejoin:miter;stroke-miterlimit:10;stroke-dasharray:none;stroke-opacity:1"
       d="M 0,0 C 2.325,0.121 4.307,-1.666 4.428,-3.99 4.548,-6.315 2.762,-8.299 0.437,-8.419" /></g></g><g
   id="g1326"
   transform="translate(-26.079542,-315.41014)"><g
     transform="translate(128.9766,540.7881)"
     id="g188"><path
       inkscape:connector-curvature="0"
       id="path190"
       style="fill:#1d1d1b;fill-opacity:1;fill-rule:nonzero;stroke:none"
       d="m 0,0 -10.111,-2.149 h -0.243 c 0,0 0,-1.906 -0.244,-2.98 -0.246,-1.075 -0.636,-7.718 -0.781,-9.086 -0.148,-1.367 -0.295,-4.249 -0.344,-4.396 -0.048,-0.146 0,-0.585 0,-0.585 0,0 2.541,-11.333 3.176,-14.702 0.635,-3.373 1.367,-10.552 1.27,-10.992 -0.098,-0.44 -0.586,-0.44 -0.586,-0.44 l -6.838,-4.542 c 0,0 20.76,-0.782 23.445,-0.685 2.688,0.099 24.717,1.076 24.717,1.076 l -6.496,3.76 c 0,0 0.096,0.244 -0.147,0.391 -0.244,0.147 0.661,17.803 2.246,25.205 0,0 0.196,0.587 0.049,1.026 -0.146,0.441 0.098,1.221 0.098,1.221 l 0.195,0.392 c 0,0 -1.906,16.167 -1.953,17.193 -0.049,1.026 -0.049,0.782 -0.049,0.782 l -0.39,0.025 h -8.793 c 0,0 -3.176,-1.735 -4.983,-2.029 C 11.432,-1.807 8.104,-2.446 4.469,-1.199 0.832,0.049 0,0 0,0" /></g><g
     transform="translate(128.9766,540.7881)"
     id="g192"><path
       inkscape:connector-curvature="0"
       id="path194"
       style="fill:none;stroke:#1d1d1b;stroke-width:0.5;stroke-linecap:butt;stroke-linejoin:miter;stroke-miterlimit:10;stroke-dasharray:none;stroke-opacity:1"
       d="m 0,0 -10.111,-2.149 h -0.243 c 0,0 0,-1.906 -0.244,-2.98 -0.246,-1.075 -0.636,-7.718 -0.781,-9.086 -0.148,-1.367 -0.295,-4.249 -0.344,-4.396 -0.048,-0.146 0,-0.585 0,-0.585 0,0 2.541,-11.333 3.176,-14.702 0.635,-3.373 1.367,-10.552 1.27,-10.992 -0.098,-0.44 -0.586,-0.44 -0.586,-0.44 l -6.838,-4.542 c 0,0 20.76,-0.782 23.445,-0.685 2.688,0.099 24.717,1.076 24.717,1.076 l -6.496,3.76 c 0,0 0.096,0.244 -0.147,0.391 -0.244,0.147 0.661,17.803 2.246,25.205 0,0 0.196,0.587 0.049,1.026 -0.146,0.441 0.098,1.221 0.098,1.221 l 0.195,0.392 c 0,0 -1.906,16.167 -1.953,17.193 -0.049,1.026 -0.049,0.782 -0.049,0.782 l -0.39,0.025 h -8.793 c 0,0 -3.176,-1.735 -4.983,-2.029 C 11.432,-1.807 8.104,-2.446 4.469,-1.199 0.832,0.049 0,0 0,0 Z" /></g><g
     transform="translate(126.291,544.0127)"
     id="g196"><path
       inkscape:connector-curvature="0"
       id="path198"
       style="fill:#1d1d1b;fill-opacity:1;fill-rule:nonzero;stroke:none"
       d="m 0,0 c 0,0 0.049,-2.395 3.518,-3.664 3.468,-1.271 8.546,-3.077 11.966,-2.003 3.418,1.075 6.399,3.176 6.545,4.445 l 0.147,1.271 -1.563,0.341 c 0,0 0.44,-0.978 -0.342,-2.052 -0.781,-1.073 -7.279,-4.298 -12.113,-2.734 -4.836,1.562 -6.4,3.419 -6.547,3.808 l -0.146,0.393 z" /></g><g
     transform="translate(126.291,544.0127)"
     id="g200"><path
       inkscape:connector-curvature="0"
       id="path202"
       style="fill:none;stroke:#ffffff;stroke-width:0.5;stroke-linecap:butt;stroke-linejoin:miter;stroke-miterlimit:10;stroke-dasharray:none;stroke-opacity:1"
       d="m 0,0 c 0,0 0.049,-2.395 3.518,-3.664 3.468,-1.271 8.546,-3.077 11.966,-2.003 3.418,1.075 6.399,3.176 6.545,4.445 l 0.147,1.271 -1.563,0.341 c 0,0 0.44,-0.978 -0.342,-2.052 -0.781,-1.073 -7.279,-4.298 -12.113,-2.734 -4.836,1.562 -6.4,3.419 -6.547,3.808 l -0.146,0.393 z" /></g><g
     transform="translate(129.7109,539.8604)"
     id="g204"><path
       inkscape:connector-curvature="0"
       id="path206"
       style="fill:none;stroke:#ffffff;stroke-width:0.5;stroke-linecap:butt;stroke-linejoin:miter;stroke-miterlimit:10;stroke-dasharray:none;stroke-opacity:1"
       d="M 0,0 C 0,0 2.49,-1.856 4.248,-2.345" /></g><g
     transform="translate(136.6465,537.2715)"
     id="g208"><path
       inkscape:connector-curvature="0"
       id="path210"
       style="fill:none;stroke:#ffffff;stroke-width:0.5;stroke-linecap:butt;stroke-linejoin:miter;stroke-miterlimit:10;stroke-dasharray:none;stroke-opacity:1"
       d="M 0,0 C 0,0 2.932,0 4.445,0.244" /></g><g
     transform="translate(143.0937,538.1162)"
     id="g212"><path
       inkscape:connector-curvature="0"
       id="path214"
       style="fill:none;stroke:#ffffff;stroke-width:0.5;stroke-linecap:butt;stroke-linejoin:miter;stroke-miterlimit:10;stroke-dasharray:none;stroke-opacity:1"
       d="M 0,0 C 0.244,0.18 2.48,0.871 2.93,1.744" /></g><g
     transform="translate(145.6348,528.8691)"
     id="g216"><path
       inkscape:connector-curvature="0"
       id="path218"
       style="fill:none;stroke:#ffffff;stroke-width:0.5;stroke-linecap:butt;stroke-linejoin:miter;stroke-miterlimit:10;stroke-dasharray:none;stroke-opacity:1"
       d="M 0,0 C 0,0 -1.613,2.395 -3.078,1.662 -4.543,0.93 -5.52,-0.635 -5.324,-2.052 c 0.195,-1.416 1.904,-4.395 5.08,-5.422 3.174,-1.024 5.178,-1.757 7.717,-0.732 2.541,1.026 3.175,3.078 3.175,3.078" /></g><g
     transform="translate(122.5293,500.1475)"
     id="g220"><path
       inkscape:connector-curvature="0"
       id="path222"
       style="fill:none;stroke:#ffffff;stroke-width:0.5;stroke-linecap:butt;stroke-linejoin:miter;stroke-miterlimit:10;stroke-dasharray:none;stroke-opacity:1"
       d="m 0,0 c 0,0 5.617,2.638 7.377,5.618 1.758,2.979 3.906,8.498 4.199,10.452 0.295,1.954 2.151,4.25 2.932,4.349 0.781,0.097 4.64,1.025 5.717,-1.612 C 21.297,16.169 23.006,8.842 25.498,6.01 27.99,3.175 31.164,0 31.164,0 c 0,0 -1.855,-0.293 -3.81,1.27 C 25.4,2.834 21.641,7.816 20.467,11.772 19.295,15.729 18.609,18.27 17.756,18.416 16.9,18.562 14.41,18.684 13.971,16.742 13.531,14.801 12.213,8.597 9.867,5.91 7.523,3.224 4.494,0.444 2.98,-0.021 1.467,-0.488 0,0 0,0 Z" /></g><g
     transform="translate(121.0156,495.0186)"
     id="g224"><path
       inkscape:connector-curvature="0"
       id="path226"
       style="fill:none;stroke:#ffffff;stroke-width:0.5;stroke-linecap:butt;stroke-linejoin:miter;stroke-miterlimit:10;stroke-dasharray:none;stroke-opacity:1"
       d="M 0,0 C 0.146,0.049 8.207,0.635 9.77,0.685 11.332,0.733 34.535,0 34.535,0" /></g><g
     transform="translate(117.1309,492.8125)"
     id="g228"><path
       inkscape:connector-curvature="0"
       id="path230"
       style="fill:none;stroke:#ffffff;stroke-width:0.5;stroke-linecap:butt;stroke-linejoin:miter;stroke-miterlimit:10;stroke-dasharray:none;stroke-opacity:1"
       d="M 0,0 H 42.426" /></g><g
     transform="translate(116.7363,492.5508)"
     id="g232"><path
       inkscape:connector-curvature="0"
       id="path234"
       style="fill:none;stroke:#ffffff;stroke-width:0.5;stroke-linecap:butt;stroke-linejoin:miter;stroke-miterlimit:10;stroke-dasharray:none;stroke-opacity:1"
       d="M 0,0 H 43.553" /></g><g
     transform="translate(130.7344,528.8691)"
     id="g236"><path
       inkscape:connector-curvature="0"
       id="path238"
       style="fill:none;stroke:#ffffff;stroke-width:0.5;stroke-linecap:butt;stroke-linejoin:miter;stroke-miterlimit:10;stroke-dasharray:none;stroke-opacity:1"
       d="M 0,0 C 0,0 1.611,2.395 3.076,1.662 4.543,0.93 5.52,-0.635 5.324,-2.052 5.129,-3.468 3.42,-6.447 0.244,-7.474 c -3.176,-1.024 -5.178,-1.757 -7.719,-0.732 -2.539,1.026 -3.175,3.078 -3.175,3.078" /></g><g
     transform="translate(118.8652,538.6387)"
     id="g240"><path
       inkscape:connector-curvature="0"
       id="path242"
       style="fill:none;stroke:#ffffff;stroke-width:0.5;stroke-linecap:butt;stroke-linejoin:miter;stroke-miterlimit:10;stroke-dasharray:none;stroke-opacity:1"
       d="m 0,0 c 0,0 -1.221,-14.849 -1.221,-15.044 v -1.759" /></g><g
     transform="translate(155.9902,541.3018)"
     id="g244"><path
       inkscape:connector-curvature="0"
       id="path246"
       style="fill:none;stroke:#ffffff;stroke-width:0.5;stroke-linecap:butt;stroke-linejoin:miter;stroke-miterlimit:10;stroke-dasharray:none;stroke-opacity:1"
       d="M 0,0 C 0,0 0.164,-6.143 0.992,-9.631 1.82,-13.12 1.838,-16.73 1.838,-16.73" /></g></g><g
   id="g1446"
   transform="translate(-26.079542,-279.78006)"><g
     transform="translate(143.6758,313.9238)"
     id="g248"><path
       inkscape:connector-curvature="0"
       id="path250"
       style="fill:#1d1d1b;fill-opacity:1;fill-rule:nonzero;stroke:none"
       d="m 0,0 c 0,0 0.232,-4.223 0,-4.788 -0.232,-0.566 -0.533,-0.965 -0.533,-1.197 0,-0.234 0.035,-0.899 0,-1.231 -0.033,-0.333 -0.133,-1.131 0,-1.397 0.135,-0.266 0.035,-1.33 0.965,-2.062 0.931,-0.731 1.564,-1.197 2.328,-0.997 0.765,0.199 1.763,1.196 1.763,1.196 l 0.598,-0.066 c 0,0 0.133,-0.433 1.496,-0.266 1.363,0.166 1.598,0.566 1.697,0.632 0.1,0.067 0.2,0.365 0.2,0.365 0,0 0.697,-0.332 1.131,-0.166 0.431,0.166 1.861,1.331 1.861,1.331 0,0 -0.863,-0.067 0.234,-0.1 1.098,-0.033 2.461,0.6 2.627,1.297 0.166,0.699 0.233,1.59 0.233,1.59 0,0 0.232,0.937 0.664,1.071 0.433,0.134 1.298,0.233 1.332,2.028 C 16.629,-0.963 16.43,0 16.43,0 L 12.338,-0.797 11.939,0 H 9.279 L 9.346,-0.465 6.85,-0.797 6.717,-0.199 4.156,-0.531 V -1.03 c 0,0 -0.299,0.266 -0.265,0.366 0.033,0.1 -1.164,-0.1 -1.928,0.133 C 1.197,-0.299 0,0 0,0" /></g><g
     transform="translate(143.6758,313.9238)"
     id="g252"><path
       inkscape:connector-curvature="0"
       id="path254"
       style="fill:none;stroke:#1d1d1b;stroke-width:0.25;stroke-linecap:butt;stroke-linejoin:miter;stroke-miterlimit:10;stroke-dasharray:none;stroke-opacity:1"
       d="m 0,0 c 0,0 0.232,-4.223 0,-4.788 -0.232,-0.566 -0.533,-0.965 -0.533,-1.197 0,-0.234 0.035,-0.899 0,-1.231 -0.033,-0.333 -0.133,-1.131 0,-1.397 0.135,-0.266 0.035,-1.33 0.965,-2.062 0.931,-0.731 1.564,-1.197 2.328,-0.997 0.765,0.199 1.763,1.196 1.763,1.196 l 0.598,-0.066 c 0,0 0.133,-0.433 1.496,-0.266 1.363,0.166 1.598,0.566 1.697,0.632 0.1,0.067 0.2,0.365 0.2,0.365 0,0 0.697,-0.332 1.131,-0.166 0.431,0.166 1.861,1.331 1.861,1.331 0,0 -0.863,-0.067 0.234,-0.1 1.098,-0.033 2.461,0.6 2.627,1.297 0.166,0.699 0.233,1.59 0.233,1.59 0,0 0.232,0.937 0.664,1.071 0.433,0.134 1.298,0.233 1.332,2.028 C 16.629,-0.963 16.43,0 16.43,0 L 12.338,-0.797 11.939,0 H 9.279 L 9.346,-0.465 6.85,-0.797 6.717,-0.199 4.156,-0.531 V -1.03 c 0,0 -0.299,0.266 -0.265,0.366 0.033,0.1 -1.164,-0.1 -1.928,0.133 C 1.197,-0.299 0,0 0,0 Z" /></g><g
     transform="translate(146.4473,332.6445)"
     id="g256"><path
       inkscape:connector-curvature="0"
       id="path258"
       style="fill:#1d1d1b;fill-opacity:1;fill-rule:nonzero;stroke:none"
       d="m 0,0 -3.371,-14.189 0.533,-3.238 c 0,0 0.531,-0.333 1.596,-0.544 1.064,-0.21 2.66,-0.254 2.66,-0.254 l 2.527,0.055 0.311,-0.276 h 2.041 l 0.211,0.475 2.537,0.279 0.576,-0.754 4.207,0.754 v 1.817 c 0,0 -1.324,3.326 -1.855,5.632 -0.534,2.306 -1.33,6.962 -1.065,7.583 0.266,0.62 0.531,0.931 0.531,0.931 0,0 0.045,-0.311 -2.084,-0.488 C 7.227,-2.395 5.187,-3.016 3.68,-2.351 2.172,-1.685 0,0 0,0" /></g><g
     transform="translate(146.4473,332.6445)"
     id="g260"><path
       inkscape:connector-curvature="0"
       id="path262"
       style="fill:none;stroke:#1d1d1b;stroke-width:0.25;stroke-linecap:butt;stroke-linejoin:miter;stroke-miterlimit:10;stroke-dasharray:none;stroke-opacity:1"
       d="m 0,0 -3.371,-14.189 0.533,-3.238 c 0,0 0.531,-0.333 1.596,-0.544 1.064,-0.21 2.66,-0.254 2.66,-0.254 l 2.527,0.055 0.311,-0.276 h 2.041 l 0.211,0.475 2.537,0.279 0.576,-0.754 4.207,0.754 v 1.817 c 0,0 -1.324,3.326 -1.855,5.632 -0.534,2.306 -1.33,6.962 -1.065,7.583 0.266,0.62 0.531,0.931 0.531,0.931 0,0 0.045,-0.311 -2.084,-0.488 C 7.227,-2.395 5.187,-3.016 3.68,-2.351 2.172,-1.685 0,0 0,0 Z" /></g><g
     transform="translate(146.8906,331.2256)"
     id="g264"><path
       inkscape:connector-curvature="0"
       id="path266"
       style="fill:none;stroke:#ffffff;stroke-width:0.25;stroke-linecap:butt;stroke-linejoin:miter;stroke-miterlimit:10;stroke-dasharray:none;stroke-opacity:1"
       d="M 0,0 C 0,0 0.709,-1.241 1.951,-1.508" /></g><g
     transform="translate(150.5254,329.1855)"
     id="g268"><path
       inkscape:connector-curvature="0"
       id="path270"
       style="fill:none;stroke:#ffffff;stroke-width:0.25;stroke-linecap:butt;stroke-linejoin:miter;stroke-miterlimit:10;stroke-dasharray:none;stroke-opacity:1"
       d="m 0,0 c 0.045,-0.311 2.396,0.178 3.371,0.223 0.977,0.043 1.508,0 1.508,0" /></g><g
     transform="translate(156.4687,329.7178)"
     id="g272"><path
       inkscape:connector-curvature="0"
       id="path274"
       style="fill:none;stroke:#ffffff;stroke-width:0.25;stroke-linecap:butt;stroke-linejoin:miter;stroke-miterlimit:10;stroke-dasharray:none;stroke-opacity:1"
       d="M 0,0 C 0,0 0.793,-0.267 0.84,0" /></g><g
     transform="translate(148.3535,309.0586)"
     id="g276"><path
       inkscape:connector-curvature="0"
       id="path278"
       style="fill:none;stroke:#ffffff;stroke-width:0.25;stroke-linecap:butt;stroke-linejoin:miter;stroke-miterlimit:10;stroke-dasharray:none;stroke-opacity:1"
       d="M 0,0 0.266,-4.612" /></g><g
     transform="translate(155.4043,310.3887)"
     id="g280"><path
       inkscape:connector-curvature="0"
       id="path282"
       style="fill:none;stroke:#ffffff;stroke-width:0.25;stroke-linecap:butt;stroke-linejoin:miter;stroke-miterlimit:10;stroke-dasharray:none;stroke-opacity:1"
       d="M 0,0 C 0,0 0.045,-3.858 0,-4.258 L -0.045,-4.656" /></g><g
     transform="translate(158.4199,311.541)"
     id="g284"><path
       inkscape:connector-curvature="0"
       id="path286"
       style="fill:none;stroke:#ffffff;stroke-width:0.25;stroke-linecap:butt;stroke-linejoin:miter;stroke-miterlimit:10;stroke-dasharray:none;stroke-opacity:1"
       d="M 0,0 -0.178,-2.482" /></g><g
     transform="translate(152.3008,309.9893)"
     id="g288"><path
       inkscape:connector-curvature="0"
       id="path290"
       style="fill:none;stroke:#ffffff;stroke-width:0.25;stroke-linecap:butt;stroke-linejoin:miter;stroke-miterlimit:10;stroke-dasharray:none;stroke-opacity:1"
       d="M 0,0 V -5.321" /></g><g
     transform="translate(144.0527,303.959)"
     id="g292"><path
       inkscape:connector-curvature="0"
       id="path294"
       style="fill:#1d1d1b;fill-opacity:1;fill-rule:nonzero;stroke:none"
       d="M 0,0 C 0,0 0.088,1.773 0.621,2.04 1.152,2.306 2.039,2.482 2.395,2.261 2.748,2.04 3.191,1.685 3.281,0.976 3.369,0.266 3.281,0 3.281,0 Z" /></g><g
     transform="translate(144.0527,303.959)"
     id="g296"><path
       inkscape:connector-curvature="0"
       id="path298"
       style="fill:none;stroke:#ffffff;stroke-width:0.25;stroke-linecap:butt;stroke-linejoin:miter;stroke-miterlimit:10;stroke-dasharray:none;stroke-opacity:1"
       d="M 0,0 C 0,0 0.088,1.773 0.621,2.04 1.152,2.306 2.039,2.482 2.395,2.261 2.748,2.04 3.191,1.685 3.281,0.976 3.369,0.266 3.281,0 3.281,0 Z" /></g><g
     transform="translate(149.5059,303.3682)"
     id="g300"><path
       inkscape:connector-curvature="0"
       id="path302"
       style="fill:#1d1d1b;fill-opacity:1;fill-rule:nonzero;stroke:none"
       d="M 0,0 C 0,0 0.053,0.887 0.365,1.021 0.678,1.152 1.199,1.241 1.408,1.131 1.615,1.021 1.877,0.843 1.928,0.487 1.98,0.133 1.928,0 1.928,0 Z" /></g><g
     transform="translate(149.5059,303.3682)"
     id="g304"><path
       inkscape:connector-curvature="0"
       id="path306"
       style="fill:none;stroke:#ffffff;stroke-width:0.25;stroke-linecap:butt;stroke-linejoin:miter;stroke-miterlimit:10;stroke-dasharray:none;stroke-opacity:1"
       d="M 0,0 C 0,0 0.053,0.887 0.365,1.021 0.678,1.152 1.199,1.241 1.408,1.131 1.615,1.021 1.877,0.843 1.928,0.487 1.98,0.133 1.928,0 1.928,0 Z" /></g><g
     transform="translate(152.9648,304.6758)"
     id="g308"><path
       inkscape:connector-curvature="0"
       id="path310"
       style="fill:#1d1d1b;fill-opacity:1;fill-rule:nonzero;stroke:none"
       d="M 0,0 C 0,0 0.041,0.697 0.287,0.801 0.533,0.905 0.941,0.975 1.105,0.888 1.27,0.801 1.473,0.662 1.514,0.383 1.555,0.104 1.514,0 1.514,0 Z" /></g><g
     transform="translate(152.9648,304.6758)"
     id="g312"><path
       inkscape:connector-curvature="0"
       id="path314"
       style="fill:none;stroke:#ffffff;stroke-width:0.25;stroke-linecap:butt;stroke-linejoin:miter;stroke-miterlimit:10;stroke-dasharray:none;stroke-opacity:1"
       d="M 0,0 C 0,0 0.041,0.697 0.287,0.801 0.533,0.905 0.941,0.975 1.105,0.888 1.27,0.801 1.473,0.662 1.514,0.383 1.555,0.104 1.514,0 1.514,0 Z" /></g><g
     transform="translate(156.002,305.8564)"
     id="g316"><path
       inkscape:connector-curvature="0"
       id="path318"
       style="fill:#1d1d1b;fill-opacity:1;fill-rule:nonzero;stroke:none"
       d="M 0,0 C 0,0 0.041,0.696 0.287,0.802 0.533,0.905 0.941,0.976 1.105,0.889 1.27,0.802 1.473,0.661 1.514,0.384 1.555,0.104 1.514,0 1.514,0 Z" /></g><g
     transform="translate(156.002,305.8564)"
     id="g320"><path
       inkscape:connector-curvature="0"
       id="path322"
       style="fill:none;stroke:#ffffff;stroke-width:0.25;stroke-linecap:butt;stroke-linejoin:miter;stroke-miterlimit:10;stroke-dasharray:none;stroke-opacity:1"
       d="M 0,0 C 0,0 0.041,0.696 0.287,0.802 0.533,0.905 0.941,0.976 1.105,0.889 1.27,0.802 1.473,0.661 1.514,0.384 1.555,0.104 1.514,0 1.514,0 Z" /></g></g>
<g
   id="g1452"
   transform="translate(-316.28781,-407.29994)"><g
     id="g342"><g
       clip-path="url(#clipPath348)"
       id="g344"><g
         transform="translate(375.7314,521.457)"
         id="g350"><path
           inkscape:connector-curvature="0"
           id="path352"
           style="fill:#1d1d1b;fill-opacity:1;fill-rule:nonzero;stroke:none"
           d="m 0,0 c 0,0 0.186,-20.098 0.518,-24.027 0.332,-3.928 0.16,-5.653 0.066,-7.838 -0.1,-2.326 -0.199,-3.016 -0.199,-3.016 0,0 -0.397,-3.082 -0.563,-4.242 -0.166,-1.16 -1.049,-4.641 -1.049,-4.641 0,0 -1.603,3.051 -2.431,8.967 -0.811,5.791 0.199,15.957 0.531,19.617 0.33,3.66 0.545,14.319 0.545,15.18 l -3.02,4.525 c 0.928,0.016 1.989,-0.088 2.342,0.407 0.354,0.494 0,1.464 -0.088,2.879 -0.09,1.414 0.838,3.226 0.838,3.888 0,0.662 0.354,0.973 -0.043,1.239 -0.398,0.263 0,0 0,0 l 0.091,3.345 H 0.351 L 0.285,13.168 0.186,12.77 C 0.088,12.373 0.318,11.445 0.617,10.385 0.916,9.324 1.115,7.602 0.883,6.508 0.65,5.414 0.617,5.746 0.65,5.414 0.684,5.082 2.323,4.521 2.788,4.521 Z" /></g></g></g></g>
<text
   xml:space="preserve"
   style="font-style:normal;font-weight:normal;font-size:30px;line-height:18.75px;font-family:sans-serif;letter-spacing:0px;word-spacing:0px;fill:#000000;fill-opacity:1;stroke:none;stroke-width:0.75px;stroke-linecap:butt;stroke-linejoin:miter;stroke-opacity:1"
   x="133.12056"
   y="-254.26622"
   id="text1472"
   transform="scale(1,-1)"><tspan
     sodipodi:role="line"
     id="tspan1470"
     x="133.12056"
     y="-254.26622"
     style="font-style:normal;font-variant:normal;font-weight:normal;font-stretch:normal;font-size:14px;font-family:sans-serif;-inkscape-font-specification:'sans-serif, Normal';font-variant-ligatures:normal;font-variant-caps:normal;font-variant-numeric:normal;font-feature-settings:normal;text-align:start;writing-mode:lr-tb;text-anchor:start;stroke-width:0.75px">Helmet</tspan></text>

<text
   transform="scale(1,-1)"
   id="text1476"
   y="-135.82251"
   x="175.71916"
   style="font-style:normal;font-weight:normal;font-size:30px;line-height:18.75px;font-family:sans-serif;letter-spacing:0px;word-spacing:0px;fill:#000000;fill-opacity:1;stroke:none;stroke-width:0.75px;stroke-linecap:butt;stroke-linejoin:miter;stroke-opacity:1"
   xml:space="preserve"><tspan
     style="font-style:normal;font-variant:normal;font-weight:normal;font-stretch:normal;font-size:14px;font-family:sans-serif;-inkscape-font-specification:'sans-serif, Normal';font-variant-ligatures:normal;font-variant-caps:normal;font-variant-numeric:normal;font-feature-settings:normal;text-align:start;writing-mode:lr-tb;text-anchor:start;stroke-width:0.75px"
     y="-135.82251"
     x="175.71916"
     id="tspan1474"
     sodipodi:role="line">Shield</tspan></text>

<text
   transform="scale(1,-1)"
   id="text1480"
   y="-161.6546"
   x="87.116905"
   style="font-style:normal;font-weight:normal;font-size:30px;line-height:18.75px;font-family:sans-serif;letter-spacing:0px;word-spacing:0px;fill:#000000;fill-opacity:1;stroke:none;stroke-width:0.75px;stroke-linecap:butt;stroke-linejoin:miter;stroke-opacity:1"
   xml:space="preserve"><tspan
     style="font-style:normal;font-variant:normal;font-weight:normal;font-stretch:normal;font-size:14px;font-family:sans-serif;-inkscape-font-specification:'sans-serif, Normal';font-variant-ligatures:normal;font-variant-caps:normal;font-variant-numeric:normal;font-feature-settings:normal;text-align:start;writing-mode:lr-tb;text-anchor:start;stroke-width:0.75px"
     y="-161.6546"
     x="87.116905"
     id="tspan1478"
     sodipodi:role="line">Cuirass</tspan></text>

<text
   xml:space="preserve"
   style="font-style:normal;font-weight:normal;font-size:30px;line-height:18.75px;font-family:sans-serif;letter-spacing:0px;word-spacing:0px;fill:#000000;fill-opacity:1;stroke:none;stroke-width:0.75px;stroke-linecap:butt;stroke-linejoin:miter;stroke-opacity:1"
   x="13.964888"
   y="-232.01366"
   id="text1484"
   transform="scale(1,-1)"><tspan
     sodipodi:role="line"
     id="tspan1482"
     x="13.964888"
     y="-232.01366"
     style="font-style:normal;font-variant:normal;font-weight:normal;font-stretch:normal;font-size:14px;font-family:sans-serif;-inkscape-font-specification:'sans-serif, Normal';font-variant-ligatures:normal;font-variant-caps:normal;font-variant-numeric:normal;font-feature-settings:normal;text-align:start;writing-mode:lr-tb;text-anchor:start;stroke-width:0.75px">Arm guard</tspan></text>

<text
   xml:space="preserve"
   style="font-style:normal;font-weight:normal;font-size:30px;line-height:18.75px;font-family:sans-serif;letter-spacing:0px;word-spacing:0px;fill:#000000;fill-opacity:1;stroke:none;stroke-width:0.75px;stroke-linecap:butt;stroke-linejoin:miter;stroke-opacity:1"
   x="14.655508"
   y="-145.60162"
   id="text1488"
   transform="scale(1,-1)"><tspan
     sodipodi:role="line"
     id="tspan1486"
     x="14.655508"
     y="-145.60162"
     style="font-style:normal;font-variant:normal;font-weight:normal;font-stretch:normal;font-size:14px;font-family:sans-serif;-inkscape-font-specification:'sans-serif, Normal';font-variant-ligatures:normal;font-variant-caps:normal;font-variant-numeric:normal;font-feature-settings:normal;text-align:start;writing-mode:lr-tb;text-anchor:start;stroke-width:0.75px">Spear</tspan></text>

<text
   transform="scale(1,-1)"
   id="text1492"
   y="-53.522572"
   x="36.734928"
   style="font-style:normal;font-weight:normal;font-size:30px;line-height:18.75px;font-family:sans-serif;letter-spacing:0px;word-spacing:0px;fill:#000000;fill-opacity:1;stroke:none;stroke-width:0.75px;stroke-linecap:butt;stroke-linejoin:miter;stroke-opacity:1"
   xml:space="preserve"><tspan
     style="font-style:normal;font-variant:normal;font-weight:normal;font-stretch:normal;font-size:14px;font-family:sans-serif;-inkscape-font-specification:'sans-serif, Normal';font-variant-ligatures:normal;font-variant-caps:normal;font-variant-numeric:normal;font-feature-settings:normal;text-align:start;writing-mode:lr-tb;text-anchor:start;stroke-width:0.75px"
     y="-53.522572"
     x="36.734928"
     id="tspan1490"
     sodipodi:role="line">Sword</tspan></text>

<text
   xml:space="preserve"
   style="font-style:normal;font-weight:normal;font-size:30px;line-height:18.75px;font-family:sans-serif;letter-spacing:0px;word-spacing:0px;fill:#000000;fill-opacity:1;stroke:none;stroke-width:0.75px;stroke-linecap:butt;stroke-linejoin:miter;stroke-opacity:1"
   x="145.00682"
   y="-31.672657"
   id="text1496"
   transform="scale(1,-1)"><tspan
     sodipodi:role="line"
     id="tspan1494"
     x="145.00682"
     y="-31.672657"
     style="font-style:normal;font-variant:normal;font-weight:normal;font-stretch:normal;font-size:14px;font-family:sans-serif;-inkscape-font-specification:'sans-serif, Normal';font-variant-ligatures:normal;font-variant-caps:normal;font-variant-numeric:normal;font-feature-settings:normal;text-align:start;writing-mode:lr-tb;text-anchor:start;stroke-width:0.75px">Foot guard</tspan></text>

<text
   transform="scale(1,-1)"
   id="text1500"
   y="-71.359184"
   x="144.06088"
   style="font-style:normal;font-weight:normal;font-size:30px;line-height:18.75px;font-family:sans-serif;letter-spacing:0px;word-spacing:0px;fill:#000000;fill-opacity:1;stroke:none;stroke-width:0.75px;stroke-linecap:butt;stroke-linejoin:miter;stroke-opacity:1"
   xml:space="preserve"><tspan
     style="font-style:normal;font-variant:normal;font-weight:normal;font-stretch:normal;font-size:14px;font-family:sans-serif;-inkscape-font-specification:'sans-serif, Normal';font-variant-ligatures:normal;font-variant-caps:normal;font-variant-numeric:normal;font-feature-settings:normal;text-align:start;writing-mode:lr-tb;text-anchor:start;stroke-width:0.75px"
     y="-71.359184"
     x="144.06088"
     id="tspan1498"
     sodipodi:role="line">Ankle guard</tspan></text>

<text
   xml:space="preserve"
   style="font-style:normal;font-weight:normal;font-size:30px;line-height:18.75px;font-family:sans-serif;letter-spacing:0px;word-spacing:0px;fill:#000000;fill-opacity:1;stroke:none;stroke-width:0.75px;stroke-linecap:butt;stroke-linejoin:miter;stroke-opacity:1"
   x="142.79964"
   y="-105.24884"
   id="text1504"
   transform="scale(1,-1)"><tspan
     sodipodi:role="line"
     id="tspan1502"
     x="142.79964"
     y="-105.24884"
     style="font-style:normal;font-variant:normal;font-weight:normal;font-stretch:normal;font-size:14px;font-family:sans-serif;-inkscape-font-specification:'sans-serif, Normal';font-variant-ligatures:normal;font-variant-caps:normal;font-variant-numeric:normal;font-feature-settings:normal;text-align:start;writing-mode:lr-tb;text-anchor:start;stroke-width:0.75px">Greaves</tspan></text>

</g></svg>